<?xml version="1.0" encoding="UTF-8" standalone="no"?>
<!-- Created with Inkscape (http://www.inkscape.org/) -->

<svg
   width="200"
   height="117.78172"
   viewBox="0 0 52.916667 31.163079"
   version="1.1"
   id="svg5"
   xml:space="preserve"
   sodipodi:docname="brand.svg"
   inkscape:version="1.2.2 (b0a84865, 2022-12-01)"
   xmlns:inkscape="http://www.inkscape.org/namespaces/inkscape"
   xmlns:sodipodi="http://sodipodi.sourceforge.net/DTD/sodipodi-0.dtd"
   xmlns="http://www.w3.org/2000/svg"
   xmlns:svg="http://www.w3.org/2000/svg"><sodipodi:namedview
     id="namedview7"
     pagecolor="#ffffff"
     bordercolor="#000000"
     borderopacity="0.25"
     inkscape:showpageshadow="2"
     inkscape:pageopacity="0.0"
     inkscape:pagecheckerboard="0"
     inkscape:deskcolor="#d1d1d1"
     inkscape:document-units="mm"
     showgrid="false"
     inkscape:zoom="2.6705298"
     inkscape:cx="49.802851"
     inkscape:cy="80.508369"
     inkscape:window-width="1470"
     inkscape:window-height="806"
     inkscape:window-x="1080"
     inkscape:window-y="1001"
     inkscape:window-maximized="0"
     inkscape:current-layer="layer1"
     showguides="false" /><defs
     id="defs2"><linearGradient
       id="linearGradient1102"
       inkscape:swatch="solid"><stop
         style="stop-color:#46698e;stop-opacity:1;"
         offset="0"
         id="stop1100" /></linearGradient></defs><g
     inkscape:label="圖層 1"
     inkscape:groupmode="layer"
     id="layer1"
     transform="translate(-0.17449528,-2.8985574)"><path
       d="M 7.2216744,34.061609 C 5.7892379,34.06469 4.4756828,33.811546 3.2526609,33.236992 2.4014972,32.83713 1.4997301,32.134814 1.0474959,31.477284 -0.10811262,29.797076 -0.04238796,28.443543 0.81090184,26.5363 1.8802367,24.146161 5.5719749,22.642645 7.7725591,24.097854 c 3.8094219,2.519106 7.9928679,2.611062 9.9417399,2.448449 1.521536,0.03485 2.766277,-0.608834 2.766117,-0.626925 -1.84e-4,-0.01836 -0.350505,-0.71685 -0.778479,-1.552946 -1.141112,-2.229125 -1.421598,-3.5769 -1.305039,-6.270912 0.117156,-2.706071 0.546231,-4.074595 1.923328,-6.133512 1.359445,-2.0325518 3.365951,-3.6589091 5.645241,-4.5757285 0.559597,-0.2250954 3.244874,-0.781407 5.967316,-1.2362654 3.516006,-0.5874509 5.273229,-0.9708715 6.066062,-1.3236003 1.06715,-0.4747836 1.116142,-0.5279875 1.116142,-1.212217 V 2.8985574 l 0.824974,0.1460662 c 0.941764,0.1667458 1.249166,0.1659426 3.959,-0.010327 2.34204,-0.152373 3.084135,0.033106 4.357443,1.0889603 0.490361,0.4066352 1.7788,1.1128048 2.863166,1.569261 l 1.971592,0.8299154 v 1.0045691 c 0,0.5525268 -0.130894,1.3181666 -0.291155,1.7014338 -0.177472,0.4248117 -0.291155,1.3107018 -0.291155,2.2690878 0,1.541368 -0.0093,1.569544 -0.436758,1.436156 -1.060066,-0.330215 -1.310495,-0.484076 -1.314073,-0.80732 -0.0023,-0.241535 -0.212533,-0.09538 -0.702499,0.488913 -0.384311,0.458375 -1.118985,1.046402 -1.632661,1.306689 -0.941054,0.476878 -1.662124,1.232293 -1.39592,1.462409 0.07909,0.06832 0.509961,0.265745 0.957513,0.438589 0.566187,1.396147 0.499239,2.304214 0.448012,3.570176 l -0.332931,0.810419 c -0.348017,0.847192 -0.339263,-1.174142 -1.386549,-0.740054 -0.908403,0.376504 -0.680315,-0.289774 -1.372156,-0.451247 -1.669115,0.703828 -2.470865,1.924106 -2.957813,3.419156 -0.983928,1.350594 -1.196916,1.900516 -1.153861,2.978947 0.02295,0.556066 -0.05019,1.347385 -0.16094,1.758508 -0.304967,1.132514 -1.352016,2.573348 -2.277868,3.134459 -0.455304,0.275945 -0.830567,0.5662 -0.833963,0.644999 -0.0023,0.07888 0.539812,0.09834 1.207097,0.04356 0.667259,-0.05478 1.773155,-0.04207 2.457567,0.02805 1.601324,0.164595 2.505443,0.895496 2.675444,2.162818 l 0.110495,0.824881 H 33.122842 c -6.20628,0 -11.283074,-0.06558 -11.281744,-0.145599 0.0021,-0.129746 1.282708,-3.677536 1.651508,-4.575372 -1.296834,0.05453 -3.375289,1.071226 -4.930474,1.897329 -4.85245,2.577586 -7.777068,2.869948 -11.3404576,2.877619 z"
       style="fill:#795548;fill-opacity:1;stroke-width:0.194113"
       id="path437"
       sodipodi:nodetypes="sassscccccsscscsccccscscccccccscccccscscccsccss" /></g></svg>
