<?xml version="1.0" encoding="UTF-8" standalone="no"?>
<!-- Created with Inkscape (http://www.inkscape.org/) -->

<svg
   width="48"
   height="48"
   viewBox="0 0 12.7 12.7"
   version="1.1"
   id="svg5"
   xml:space="preserve"
   sodipodi:docname="beaverIcon.svg"
   inkscape:version="1.2.2 (b0a84865, 2022-12-01)"
   xmlns:inkscape="http://www.inkscape.org/namespaces/inkscape"
   xmlns:sodipodi="http://sodipodi.sourceforge.net/DTD/sodipodi-0.dtd"
   xmlns="http://www.w3.org/2000/svg"
   xmlns:svg="http://www.w3.org/2000/svg"><sodipodi:namedview
     id="namedview7"
     pagecolor="#ffffff"
     bordercolor="#000000"
     borderopacity="0.25"
     inkscape:showpageshadow="2"
     inkscape:pageopacity="0.0"
     inkscape:pagecheckerboard="0"
     inkscape:deskcolor="#d1d1d1"
     inkscape:document-units="mm"
     showgrid="false"
     inkscape:zoom="12.352707"
     inkscape:cx="19.914663"
     inkscape:cy="23.881405"
     inkscape:window-width="1470"
     inkscape:window-height="920"
     inkscape:window-x="1080"
     inkscape:window-y="1000"
     inkscape:window-maximized="0"
     inkscape:current-layer="layer1" /><defs
     id="defs2"><linearGradient
       id="linearGradient1102"
       inkscape:swatch="solid"><stop
         style="stop-color:#46698e;stop-opacity:1;"
         offset="0"
         id="stop1100" /></linearGradient></defs><g
     inkscape:label="圖層 1"
     inkscape:groupmode="layer"
     id="layer1"><path
       d="M 1.8327265,10.231356 C 1.4956681,10.232081 1.186583,10.172515 0.89880074,10.03732 0.6985183,9.9432308 0.48632867,9.7779729 0.37991603,9.6232533 0.10799644,9.2278933 0.12346173,8.9094012 0.32424445,8.4606188 0.57586348,7.898209 1.4445452,7.5444252 1.962352,7.886842 2.8587252,8.4795984 3.8431079,8.501236 4.3016857,8.4629726 4.6597096,8.4711726 4.9526025,8.3197114 4.9525648,8.3154544 4.9525216,8.3111336 4.8700895,8.1467765 4.7693853,7.9500397 4.5008768,7.4255169 4.4348772,7.1083799 4.4623042,6.4744674 4.4898714,5.8377172 4.5908346,5.5156979 4.9148715,5.0312259 5.2347545,4.5529578 5.706894,4.170269 6.2432206,3.9545375 6.3748961,3.9015716 7.0067533,3.7706691 7.6473554,3.663639 8.4746865,3.5254093 8.8881687,3.4351888 9.0747256,3.3521902 9.3258306,3.2404716 9.3373586,3.2279525 9.3373586,3.0669504 v -0.168393 l 0.19412,0.03437 c 0.221601,0.039236 0.293934,0.039047 0.9315694,-0.00243 0.551092,-0.035854 0.72571,0.00779 1.025325,0.256237 0.115384,0.095683 0.418559,0.2618477 0.673715,0.3692538 l 0.463924,0.1952826 v 0.2363794 c 0,0.1300119 -0.0308,0.3101702 -0.06851,0.4003546 -0.04176,0.09996 -0.06851,0.3084137 -0.06851,0.5339259 0,0.3626905 -0.0022,0.3693206 -0.102771,0.3379338 -0.249438,-0.077701 -0.308365,-0.1139051 -0.309207,-0.189966 -5.39e-4,-0.056834 -0.05001,-0.022442 -0.165301,0.1150435 -0.09043,0.1078576 -0.263302,0.2462227 -0.384172,0.3074695 -0.221434,0.1122113 -0.391105,0.2899636 -0.328466,0.3441109 0.01861,0.016076 0.119996,0.062531 0.225307,0.103202 0.133226,0.3285193 0.117473,0.5421912 0.105419,0.8400774 l -0.07834,0.1906951 C 11.369571,7.1698447 11.371631,6.6942164 11.1252,6.7963591 10.911449,6.8849521 10.965119,6.7281741 10.802326,6.6901787 10.409576,6.8557924 10.220921,7.142929 10.10634,7.4947206 9.8748176,7.8125211 9.8247006,7.9419201 9.8348316,8.1956796 c 0.0054,0.1308448 -0.01181,0.3170453 -0.03787,0.4137843 -0.07176,0.2664855 -0.318135,0.6055199 -0.535992,0.7375516 -0.107135,0.064931 -0.195436,0.1332292 -0.196235,0.1517711 -5.39e-4,0.01856 0.12702,0.02314 0.284035,0.01025 0.157009,-0.01289 0.417231,-0.0099 0.578276,0.0066 0.3767984,0.03873 0.5895414,0.210714 0.6295434,0.5089204 l 0.026,0.194098 H 7.9273815 c -1.4603642,0 -2.6549554,-0.01543 -2.6546425,-0.03426 5.017e-4,-0.03053 0.3018267,-0.86534 0.388607,-1.0766046 -0.3051507,0.01283 -0.7942199,0.2520641 -1.1601617,0.4464497 -1.141802,0.6065169 -1.829977,0.6753109 -2.6684578,0.6771159 z"
       style="fill:#795548;stroke-width:0.0456757;fill-opacity:1"
       id="path437"
       sodipodi:nodetypes="sassscccccsscscsccccscscccccccscccccscscccsccss" /></g></svg>
